<svg width="16" height="16" viewBox="0 0 16 16" fill="none" xmlns="http://www.w3.org/2000/svg">
<path d="M0.5 3.375V12.625H4.96875C5.38281 12.625 8.23438 12.541 8.23438 9.9375C8.23438 8.31055 7.11523 7.75781 6.54688 7.59375C6.96484 7.39648 7.79688 6.92773 7.79688 5.67188C7.79688 4.97266 7.69727 3.375 4.84375 3.375H0.5ZM10.6875 4.23438V5.07812H14.1406V4.23438H10.6875ZM2.53125 4.95312H4.4375C4.61719 4.95312 5.82812 4.85742 5.82812 6.01562C5.82812 7.00586 4.95312 7.10938 4.59375 7.10938H2.53125V4.95312ZM12.5 5.84375C9.88867 5.84375 9.34375 8.11133 9.34375 9.09375C9.34375 12.0098 11.7344 12.3438 12.5 12.3438C14.5645 12.3438 15.1504 11.0078 15.3906 10.2656H13.8906C13.832 10.457 13.3945 11.0781 12.5625 11.0781C11.168 11.0781 11.0469 9.98828 11.0469 9.5H15.4844C15.5742 7.8125 14.8359 5.84375 12.5 5.84375ZM12.4531 7.10938C12.8691 7.10938 13.2051 7.23047 13.4062 7.45312C13.6074 7.67773 13.7559 8.00586 13.7969 8.4375H11.0469C11.0547 8.31836 11.082 8.18164 11.125 8.03125C11.168 7.87695 11.2344 7.73047 11.3438 7.59375C11.4531 7.45898 11.6055 7.3418 11.7812 7.25C11.9609 7.15625 12.1836 7.10938 12.4531 7.10938ZM2.53125 8.5H4.73438C5.17188 8.5 6.20312 8.56836 6.20312 9.82812C6.20312 11.0488 4.9043 11.0469 4.70312 11.0469H2.53125V8.5Z" fill="#130F49"/>
</svg>
