<svg width="16" height="16" viewBox="0 0 16 16" fill="none" xmlns="http://www.w3.org/2000/svg">
<path d="M8 2C4.69141 2 2 4.69141 2 8C2 11.3086 4.69141 14 8 14C11.3086 14 14 11.3086 14 8C14 4.69141 11.3086 2 8 2ZM8 3C9.26758 3 10.416 3.47656 11.2969 4.25C11.2031 4.38086 11.0762 4.53906 10.875 4.73438C10.4473 5.14844 9.76367 5.64648 8.71875 6.03125C8.01172 4.72461 7.31836 3.74219 6.85938 3.125C7.22461 3.04102 7.60742 3 8 3ZM5.875 3.46875C6.28516 4.00586 7.01562 5.00195 7.75 6.32812C5.7168 6.86719 3.85156 6.93555 3.10938 6.9375C3.44141 5.39258 4.48047 4.12109 5.875 3.46875ZM11.9844 4.98438C12.5938 5.79102 12.9727 6.78906 13 7.875C12.5547 7.77539 11.8984 7.67773 11.0469 7.67188C10.6035 7.66992 10.1016 7.70117 9.5625 7.76562C9.4375 7.48047 9.30273 7.20508 9.17188 6.9375C10.293 6.50781 11.0566 5.94141 11.5625 5.45312C11.7344 5.28516 11.8691 5.13086 11.9844 4.98438ZM8.20312 7.23438C8.31836 7.4668 8.43555 7.70508 8.54688 7.95312C6.41016 8.54492 4.875 10.3574 4.21875 11.2656C3.46289 10.3906 3 9.25 3 8C3 7.97852 3 7.95898 3 7.9375C3.67578 7.94531 5.82422 7.89844 8.20312 7.23438ZM11.0469 8.65625C11.9395 8.65625 12.5566 8.78125 12.9219 8.875C12.6895 10.207 11.9375 11.3496 10.875 12.0938C10.6758 10.8984 10.3477 9.76172 9.95312 8.71875C10.3477 8.67969 10.7207 8.65625 11.0469 8.65625ZM8.9375 8.89062C9.38672 10.0312 9.76367 11.2832 9.95312 12.6094C9.35547 12.8613 8.69141 13 8 13C6.85352 13 5.79492 12.6152 4.95312 11.9688C5.4668 11.2656 6.97656 9.39453 8.9375 8.89062Z" fill="#130F49"/>
</svg>
