<svg width="16" height="16" viewBox="0 0 16 16" fill="none" xmlns="http://www.w3.org/2000/svg">
<mask id="mask0" mask-type="alpha" maskUnits="userSpaceOnUse" x="2" y="2" width="12" height="12">
<path d="M9.7287 14V9.64128H11.2068L11.4275 7.98407H9.7287V6.91084C9.7287 6.42157 9.86155 6.09013 10.5715 6.09013H11.5V4.56313C11.3432 4.5434 10.7947 4.5 10.1697 4.5C8.86447 4.5 7.98239 5.29309 7.98239 6.73328V7.98407H6.5V9.64128H7.98204L7.97915 14H3C2.45312 14 2 13.5469 2 13V3C2 2.45312 2.45312 2 3 2H13C13.5469 2 14 2.45312 14 3V13C14 13.5469 13.5469 14 13 14H9.7287Z" fill="white"/>
</mask>
<g mask="url(#mask0)">
<path d="M9.7287 14V9.64128H11.2068L11.4275 7.98407H9.7287V6.91084C9.7287 6.42157 9.86155 6.09013 10.5715 6.09013H11.5V4.56313C11.3432 4.5434 10.7947 4.5 10.1697 4.5C8.86447 4.5 7.98239 5.29309 7.98239 6.73328V7.98407H6.5V9.64128H7.98204L7.97915 14H3C2.45312 14 2 13.5469 2 13V3C2 2.45312 2.45312 2 3 2H13C13.5469 2 14 2.45312 14 3V13C14 13.5469 13.5469 14 13 14H9.7287Z" fill="#130F49"/>
</g>
</svg>
