<svg width="16" height="16" viewBox="0 0 16 16" fill="none" xmlns="http://www.w3.org/2000/svg">
<path fill-rule="evenodd" clip-rule="evenodd" d="M2 5.46284C2 3.55037 3.55035 2 5.46284 2H10.5372C12.4496 2 14 3.55035 14 5.46284V10.5372C14 12.4496 12.4496 14 10.5372 14H5.46284C3.55037 14 2 12.4496 2 10.5372V5.46284ZM3.08621 5.56612V10.4339C3.08621 11.8055 4.1965 12.9138 5.56612 12.9138H10.4339C11.8055 12.9138 12.9138 11.8035 12.9138 10.4339V5.56612C12.9138 4.19445 11.8035 3.08621 10.4339 3.08621H5.56612C4.19445 3.08621 3.08621 4.1965 3.08621 5.56612ZM8 11.0517C6.31458 11.0517 4.94828 9.68542 4.94828 8C4.94828 6.31458 6.31458 4.94828 8 4.94828C9.68542 4.94828 11.0517 6.31458 11.0517 8C11.0517 9.68542 9.68542 11.0517 8 11.0517ZM8 9.96552C9.08553 9.96552 9.96552 9.08553 9.96552 8C9.96552 6.91447 9.08553 6.03448 8 6.03448C6.91447 6.03448 6.03448 6.91447 6.03448 8C6.03448 9.08553 6.91447 9.96552 8 9.96552ZM11.1552 5.51724C10.7552 5.51724 10.431 5.19303 10.431 4.7931C10.431 4.39317 10.7552 4.06897 11.1552 4.06897C11.5551 4.06897 11.8793 4.39317 11.8793 4.7931C11.8793 5.19303 11.5551 5.51724 11.1552 5.51724Z" fill="#130F49"/>
</svg>
