<svg width="0" height="0" class="hidden">
  <symbol xmlns="http://www.w3.org/2000/svg" viewBox="0 0 16 16" id="facebook">
    <mask id="a" maskUnits="userSpaceOnUse" x="2" y="2" width="12" height="12">
      <path d="M9.729 14V9.641h1.478l.22-1.657H9.73V6.911c0-.49.133-.82.843-.82h.928V4.562a13.07 13.07 0 00-1.33-.063c-1.306 0-2.188.793-2.188 2.233v1.251H6.5V9.64h1.482L7.979 14H3c-.547 0-1-.453-1-1V3c0-.547.453-1 1-1h10c.547 0 1 .453 1 1v10c0 .547-.453 1-1 1H9.729z"></path>
    </mask>
    <g mask="url(#a)">
      <path d="M9.729 14V9.641h1.478l.22-1.657H9.73V6.911c0-.49.133-.82.843-.82h.928V4.562a13.07 13.07 0 00-1.33-.063c-1.306 0-2.188.793-2.188 2.233v1.251H6.5V9.64h1.482L7.979 14H3c-.547 0-1-.453-1-1V3c0-.547.453-1 1-1h10c.547 0 1 .453 1 1v10c0 .547-.453 1-1 1H9.729z" ></path>
    </g>
  </symbol>
  <symbol xmlns="http://www.w3.org/2000/svg" viewBox="0 0 16 16" id="instagram">
    <path clip-rule="evenodd" d="M2 5.463A3.463 3.463 0 015.463 2h5.074A3.463 3.463 0 0114 5.463v5.074A3.463 3.463 0 0110.537 14H5.463A3.463 3.463 0 012 10.537V5.463zm1.086.103v4.868c0 1.372 1.11 2.48 2.48 2.48h4.868c1.372 0 2.48-1.11 2.48-2.48V5.566c0-1.372-1.11-2.48-2.48-2.48H5.566a2.479 2.479 0 00-2.48 2.48zM8 11.052a3.052 3.052 0 110-6.104 3.052 3.052 0 010 6.104zm0-1.086a1.966 1.966 0 100-3.932 1.966 1.966 0 000 3.932zm3.155-4.449a.724.724 0 110-1.448.724.724 0 010 1.448z" ></path>
  </symbol>
  <symbol xmlns="http://www.w3.org/2000/svg" viewBox="0 0 16 16" id="twitter">
    <path clip-rule="evenodd" d="M14 4.157a4.914 4.914 0 01-1.414.386 2.468 2.468 0 001.082-1.361 4.958 4.958 0 01-1.563.598A2.463 2.463 0 007.91 6.024 6.978 6.978 0 012.836 3.45a2.458 2.458 0 00.761 3.288 2.446 2.446 0 01-1.114-.31v.032a2.46 2.46 0 001.974 2.414 2.458 2.458 0 01-1.111.043 2.467 2.467 0 002.298 1.711A4.94 4.94 0 012 11.647a6.96 6.96 0 003.774 1.107c4.529 0 7.006-3.752 7.006-7.006 0-.106-.005-.213-.008-.319A5.04 5.04 0 0014 4.157z" ></path>
  </symbol>
  <symbol xmlns="http://www.w3.org/2000/svg" viewBox="0 0 16 16" id="behance">
    <path d="M.5 3.375v9.25h4.469c.414 0 3.265-.084 3.265-2.688 0-1.626-1.119-2.18-1.687-2.343.418-.198 1.25-.666 1.25-1.922 0-.7-.1-2.297-2.953-2.297H.5zm10.188.86v.843h3.453v-.844h-3.454zm-8.157.718h1.906c.18 0 1.391-.096 1.391 1.063 0 .99-.875 1.093-1.234 1.093H2.53V4.953zm9.969.89c-2.611 0-3.156 2.268-3.156 3.25 0 2.917 2.39 3.25 3.156 3.25 2.065 0 2.65-1.335 2.89-2.077h-1.5c-.058.191-.495.812-1.328.812-1.394 0-1.515-1.09-1.515-1.578h4.437c.09-1.688-.648-3.656-2.984-3.656zm-.047 1.266c.416 0 .752.121.953.344.201.225.35.553.39.984h-2.75c.009-.119.036-.255.079-.406.043-.154.11-.3.219-.437.11-.135.261-.252.437-.344.18-.094.403-.14.672-.14zM2.531 8.5h2.203c.438 0 1.47.068 1.47 1.328 0 1.22-1.3 1.219-1.5 1.219H2.53V8.5z" ></path>
  </symbol>
  <symbol xmlns="http://www.w3.org/2000/svg" viewBox="0 0 16 16" id="dribbble">
    <path d="M8 2C4.691 2 2 4.691 2 8s2.691 6 6 6 6-2.691 6-6-2.691-6-6-6zm0 1c1.268 0 2.416.477 3.297 1.25-.094.13-.22.29-.422.484-.428.414-1.111.912-2.156 1.297a23.844 23.844 0 00-1.86-2.906A5.092 5.092 0 018 3zm-2.125.469a23.34 23.34 0 011.875 2.86 19.221 19.221 0 01-4.64.609 4.99 4.99 0 012.765-3.47zm6.11 1.515A4.997 4.997 0 0113 7.875a9.312 9.312 0 00-1.953-.203 12.22 12.22 0 00-1.485.094c-.124-.286-.26-.56-.39-.829 1.121-.43 1.885-.996 2.39-1.484a4.67 4.67 0 00.422-.469zm-3.782 2.25c.115.233.233.471.344.72-2.137.59-3.672 2.403-4.328 3.312A4.981 4.981 0 013 8v-.063c.676.008 2.824-.039 5.203-.703zm2.844 1.422c.893 0 1.51.125 1.875.219a4.964 4.964 0 01-2.047 3.219 17.881 17.881 0 00-.922-3.375c.395-.04.768-.063 1.094-.063zm-2.11.235c.45 1.14.827 2.392 1.016 3.718A5.031 5.031 0 018 13a4.99 4.99 0 01-3.047-1.031c.514-.703 2.024-2.574 3.984-3.078z" ></path>
  </symbol>
</svg>