<svg width="16" height="16" viewBox="0 0 16 16" fill="none" xmlns="http://www.w3.org/2000/svg">
<path fill-rule="evenodd" clip-rule="evenodd" d="M14 4.1565C13.5585 4.3515 13.084 4.4845 12.586 4.543C13.094 4.2385 13.4845 3.756 13.668 3.1815C13.1935 3.463 12.666 3.668 12.1055 3.7795C11.656 3.301 11.0155 3 10.3085 3C8.949 3 7.8455 4.1035 7.8455 5.463C7.8455 5.6565 7.867 5.844 7.91 6.0235C5.8635 5.922 4.049 4.9415 2.836 3.451C2.623 3.8145 2.502 4.2385 2.502 4.6895C2.502 5.543 2.9355 6.297 3.5975 6.7385C3.1935 6.7245 2.8145 6.6155 2.4825 6.4295C2.4825 6.4415 2.4825 6.451 2.4825 6.461C2.4825 7.6545 3.33 8.6505 4.457 8.875C4.25 8.9315 4.033 8.963 3.8085 8.963C3.6505 8.963 3.494 8.9475 3.3455 8.918C3.658 9.8965 4.5685 10.6075 5.6445 10.629C4.8025 11.289 3.74 11.6815 2.588 11.6815C2.3885 11.6815 2.1935 11.67 2 11.6465C3.09 12.346 4.383 12.754 5.7735 12.754C10.3025 12.754 12.7795 9.002 12.7795 5.748C12.7795 5.6425 12.7755 5.535 12.7715 5.4295C13.252 5.082 13.67 4.6485 14 4.1565Z" fill="#130F49"/>
</svg>
